<?xml version="1.0" encoding="UTF-8" standalone="no"?>
<svg
   xmlns:dc="http://purl.org/dc/elements/1.1/"
   xmlns:cc="http://creativecommons.org/ns#"
   xmlns:rdf="http://www.w3.org/1999/02/22-rdf-syntax-ns#"
   xmlns:svg="http://www.w3.org/2000/svg"
   xmlns="http://www.w3.org/2000/svg"
   version="1.1"
   id="svg2"
   viewBox="0 0 16 16">
  <metadata
     id="metadata16">
    <rdf:RDF>
      <cc:Work
         rdf:about="">
        <dc:format>image/svg+xml</dc:format>
        <dc:type
           rdf:resource="http://purl.org/dc/dcmitype/StillImage" />
        <dc:title></dc:title>
      </cc:Work>
    </rdf:RDF>
  </metadata>
  <defs
     id="defs14" />
  <path
     style="fill:#ffeeaa;fill-opacity:0.70359284"
     id="path4"
     d="M2 0v16h12V4l-4-4H2z"
     fill="#EFEFEF" />
  <path
     id="path6"
     d="M10 3.98V0l4 4-4-.02z"
     fill="#FFF"
     opacity=".65" />
  <g
     id="text4144"
     style="font-style:normal;font-variant:normal;font-weight:normal;font-stretch:normal;font-size:18.40022469px;line-height:125%;font-family:'Palatino Linotype';-inkscape-font-specification:'Palatino Linotype';text-align:center;letter-spacing:0.37851894px;word-spacing:0px;text-anchor:middle;fill:#000000;fill-opacity:0.61077845;stroke:none;stroke-width:1px;stroke-linecap:butt;stroke-linejoin:miter;stroke-opacity:1"
     transform="scale(1.0820816,0.92414473)">
    <path
       id="path4140"
       style="font-style:normal;font-variant:normal;font-weight:bold;font-stretch:normal;font-size:18.40022469px;font-family:'Palatino Linotype';-inkscape-font-specification:'Palatino Linotype Bold';fill:#000000;fill-opacity:0.32335329"
       d="m 11.142543,15.197905 -0.09883,0.107814 c -0.838552,-0.05391 -1.862783,-0.08086 -3.0726936,-0.08086 -1.1799623,0 -2.4228161,0.02695 -3.7285612,0.08086 l -0.098829,-0.09883 0,-0.548053 0.1078138,-0.08985 c 0.3054725,-0.03594 0.6019605,-0.06589 0.889464,-0.08985 0.5151105,-0.04193 0.8445416,-0.09284 0.9882933,-0.152736 0.1018241,-0.04792 0.1886741,-0.158729 0.26055,-0.332426 0.1138035,-0.281514 0.1707053,-1.419549 0.1707053,-3.414104 l 0,-2.237137 c 0,-0.6708415 0.043399,-0.9896603 0.019441,-2.0198812 L 6.561928,5.6490255 C 6.561928,5.3495426 6.499037,5.1998012 6.3732539,5.1998012 5.5035945,5.1928603 4.4903615,5.6595411 3.6764367,5.8720097 L 3.5686228,5.8091183 C 3.5326849,5.4677079 3.4697935,5.0873647 3.3799487,4.6680887 l 0.00898,-0.071876 C 5.0420768,4.1290196 6.8898873,3.5031006 8.9323602,2.7184556 L 9.1210344,2.8532228 C 9.0970758,3.2066125 9.0641327,3.7307075 9.0222051,4.4255077 9.0042361,4.6890526 8.9862671,5.395832 8.9682982,6.5458461 l -0.026953,3.5309029 c 0,2.527635 0.041928,3.884292 0.1257828,4.069971 0.059897,0.137762 0.1497415,0.221617 0.2695345,0.251566 0.2156277,0.05989 0.7786555,0.1138 1.6890825,0.16172 l 0.116798,0.08985 z" />
  </g>
  <path
     style="opacity:0.086"
     id="path8"
     d="M13 5v5L9 5h4z"
     opacity=".2" />
  <path
     fill="#999"
     id="path10"
     d="M2 0v16h12V4h-.012l.004-.008L10.008.006 10 .014V0H2zm1 1h6v4h4v10H3V1zm7 .412L12.586 4H10V1.412z"
     style="fill:#aa8800;fill-opacity:0.48203593" />
</svg>
